<svg width="1080" height="1080" viewBox="0 0 1080 1080" fill="none" xmlns="http://www.w3.org/2000/svg">
<path d="M389.76 599.94C389.76 627.38 383.32 649.08 370.44 665.04C357.84 680.72 338.94 688.56 313.74 688.56C296.1 688.56 281.12 684.08 268.8 675.12C256.48 665.88 247.94 654.82 243.18 641.94L251.16 638.16C256.76 650.76 265.02 660.98 275.94 668.82C286.86 676.38 299.46 680.16 313.74 680.16C325.78 680.16 336 678.2 344.4 674.28C352.8 670.08 359.66 664.34 364.98 657.06C370.3 649.78 374.22 641.24 376.74 631.44C379.26 621.36 380.52 610.44 380.52 598.68V383.64H389.76V599.94Z" fill="black"/>
<path d="M845.54 689L774.59 537.64L703.21 689H692.89L769 529.47L700.2 384.56H710.09L774.59 520.44L838.66 384.56H848.98L780.18 529.47L856.29 689H845.54Z" fill="black"/>
<path d="M433 687L543.974 401L648 680.396H469.084" stroke="#9E252A" stroke-width="12"/>
<path d="M402.135 758.86V756.124H419.487V758.86H412.359V781H409.263V758.86H402.135ZM445.353 781L442.509 772.9H433.113L430.269 781H427.065L436.065 756.124H439.773L448.773 781H445.353ZM441.609 770.272L438.477 761.308L437.901 759.292H437.757L437.181 761.308L434.049 770.272H441.609ZM461.195 781V756.124H464.291V781H461.195ZM479.046 781V756.124H482.142V778.264H492.69V781H479.046ZM513.208 781.432C511.408 781.432 509.788 781.096 508.348 780.424C506.932 779.752 505.78 778.852 504.892 777.724C503.116 775.42 502.228 772.66 502.228 769.444C502.228 765.412 503.392 762.112 505.72 759.544C508.048 756.976 511.132 755.692 514.972 755.692C516.772 755.692 518.38 756.028 519.796 756.7C521.236 757.372 522.388 758.272 523.252 759.4C525.052 761.704 525.952 764.464 525.952 767.68C525.952 771.712 524.788 775.012 522.46 777.58C520.132 780.148 517.048 781.432 513.208 781.432ZM514.828 758.392C511.852 758.392 509.56 759.364 507.952 761.308C506.344 763.252 505.54 765.976 505.54 769.48C505.54 772.048 506.224 774.244 507.592 776.068C508.984 777.892 510.916 778.804 513.388 778.804C516.364 778.804 518.644 777.832 520.228 775.888C521.836 773.944 522.64 771.22 522.64 767.716C522.64 765.148 521.956 762.952 520.588 761.128C519.22 759.304 517.3 758.392 514.828 758.392ZM542.54 770.884V781H539.444V756.124H545.996C548.444 756.124 550.472 756.784 552.08 758.104C553.688 759.4 554.492 761.212 554.492 763.54C554.492 765.22 554.048 766.648 553.16 767.824C552.272 768.976 551.072 769.816 549.56 770.344C550.808 771.784 553.124 775.336 556.508 781H552.764C549.428 775.24 547.316 771.868 546.428 770.884H542.54ZM542.54 768.22H545.996C547.652 768.22 548.924 767.812 549.812 766.996C550.724 766.18 551.18 765.028 551.18 763.54C551.18 762.052 550.724 760.9 549.812 760.084C548.924 759.268 547.652 758.86 545.996 758.86H542.54V768.22ZM583.106 781H579.398L571.982 760.408H571.802L571.118 781H568.022L568.994 756.16H573.638L581.378 777.652H581.522L589.262 756.16H593.906L594.878 781H591.422L590.738 760.408H590.558L583.106 781ZM625.037 781L622.193 772.9H612.797L609.953 781H606.749L615.749 756.124H619.457L628.457 781H625.037ZM621.293 770.272L618.161 761.308L617.585 759.292H617.441L616.865 761.308L613.733 770.272H621.293ZM640.518 781V756.124H649.878C651.678 756.124 653.298 756.448 654.738 757.096C656.178 757.744 657.342 758.608 658.23 759.688C660.054 761.944 660.966 764.608 660.966 767.68C660.966 771.568 659.79 774.76 657.438 777.256C655.086 779.752 651.954 781 648.042 781H640.518ZM649.482 758.86H643.614V778.264H648.042C651.018 778.264 653.322 777.328 654.954 775.456C656.586 773.584 657.402 770.992 657.402 767.68C657.402 765.208 656.706 763.12 655.314 761.416C653.946 759.712 652.002 758.86 649.482 758.86ZM674.479 781V756.124H689.095L688.411 758.86H677.575V767.068H687.799V769.696H677.575V778.264H689.779V781H674.479ZM319.957 805.86V803.124H337.309V805.86H330.181V828H327.085V805.86H319.957ZM358.362 828.432C356.562 828.432 354.942 828.096 353.502 827.424C352.086 826.752 350.934 825.852 350.046 824.724C348.27 822.42 347.382 819.66 347.382 816.444C347.382 812.412 348.546 809.112 350.874 806.544C353.202 803.976 356.286 802.692 360.126 802.692C361.926 802.692 363.534 803.028 364.95 803.7C366.39 804.372 367.542 805.272 368.406 806.4C370.206 808.704 371.106 811.464 371.106 814.68C371.106 818.712 369.942 822.012 367.614 824.58C365.286 827.148 362.202 828.432 358.362 828.432ZM359.982 805.392C357.006 805.392 354.714 806.364 353.106 808.308C351.498 810.252 350.694 812.976 350.694 816.48C350.694 819.048 351.378 821.244 352.746 823.068C354.138 824.892 356.07 825.804 358.542 825.804C361.518 825.804 363.798 824.832 365.382 822.888C366.99 820.944 367.794 818.22 367.794 814.716C367.794 812.148 367.11 809.952 365.742 808.128C364.374 806.304 362.454 805.392 359.982 805.392ZM382.078 805.86V803.124H399.43V805.86H392.302V828H389.206V805.86H382.078ZM425.296 828L422.452 819.9H413.056L410.212 828H407.008L416.008 803.124H419.716L428.716 828H425.296ZM421.552 817.272L418.42 808.308L417.844 806.292H417.7L417.124 808.308L413.992 817.272H421.552ZM456.726 828L453.882 819.9H444.486L441.642 828H438.438L447.438 803.124H451.146L460.146 828H456.726ZM452.982 817.272L449.85 808.308L449.274 806.292H449.13L448.554 808.308L445.422 817.272H452.982ZM472.208 828V803.124H475.304V825.264H485.852V828H472.208ZM500.827 817.884V828H497.731V803.124H504.283C506.731 803.124 508.759 803.784 510.367 805.104C511.975 806.4 512.779 808.212 512.779 810.54C512.779 812.22 512.335 813.648 511.447 814.824C510.559 815.976 509.359 816.816 507.847 817.344C509.095 818.784 511.411 822.336 514.795 828H511.051C507.715 822.24 505.603 818.868 504.715 817.884H500.827ZM500.827 815.22H504.283C505.939 815.22 507.211 814.812 508.099 813.996C509.011 813.18 509.467 812.028 509.467 810.54C509.467 809.052 509.011 807.9 508.099 807.084C507.211 806.268 505.939 805.86 504.283 805.86H500.827V815.22ZM526.489 828V803.124H541.105L540.421 805.86H529.585V814.068H539.809V816.696H529.585V825.264H541.789V828H526.489ZM572.575 822.42V803.124H575.671V828H572.683L558.031 808.668H557.851V828H554.755V803.124H557.743L572.395 822.42H572.575ZM600.167 828.432C598.367 828.432 596.747 828.096 595.307 827.424C593.891 826.752 592.739 825.852 591.851 824.724C590.075 822.42 589.187 819.66 589.187 816.444C589.187 812.412 590.351 809.112 592.679 806.544C595.007 803.976 598.091 802.692 601.931 802.692C603.731 802.692 605.339 803.028 606.755 803.7C608.195 804.372 609.347 805.272 610.211 806.4C612.011 808.704 612.911 811.464 612.911 814.68C612.911 818.712 611.747 822.012 609.419 824.58C607.091 827.148 604.007 828.432 600.167 828.432ZM601.787 805.392C598.811 805.392 596.519 806.364 594.911 808.308C593.303 810.252 592.499 812.976 592.499 816.48C592.499 819.048 593.183 821.244 594.551 823.068C595.943 824.892 597.875 825.804 600.347 825.804C603.323 825.804 605.603 824.832 607.187 822.888C608.795 820.944 609.599 818.22 609.599 814.716C609.599 812.148 608.915 809.952 607.547 808.128C606.179 806.304 604.259 805.392 601.787 805.392ZM627.303 803.124L634.287 824.58H634.467L641.523 803.124H644.583L636.447 828H632.127L623.883 803.124H627.303ZM670.793 828L667.949 819.9H658.553L655.709 828H652.505L661.505 803.124H665.213L674.213 828H670.793ZM667.049 817.272L663.917 808.308L663.341 806.292H663.197L662.621 808.308L659.489 817.272H667.049ZM681.785 805.86V803.124H699.137V805.86H692.009V828H688.913V805.86H681.785ZM711.384 828V803.124H714.48V828H711.384ZM729.235 828V803.124H743.851L743.167 805.86H732.331V814.068H742.555V816.696H732.331V825.264H744.535V828H729.235ZM769.633 806.22C767.953 805.644 766.393 805.356 764.953 805.356C763.513 805.356 762.337 805.728 761.425 806.472C760.513 807.216 760.057 808.116 760.057 809.172C760.057 810.684 760.861 811.872 762.469 812.736L767.545 815.544C770.377 817.128 771.793 819.168 771.793 821.664C771.793 823.728 771.061 825.372 769.597 826.596C768.133 827.82 766.069 828.432 763.405 828.432C760.741 828.432 758.353 827.952 756.241 826.992L757.141 824.472C759.109 825.336 761.041 825.768 762.937 825.768C764.857 825.768 766.273 825.396 767.185 824.652C768.097 823.908 768.553 823.008 768.553 821.952C768.553 820.44 767.749 819.252 766.141 818.388L761.065 815.58C758.233 813.996 756.817 811.956 756.817 809.46C756.817 807.396 757.549 805.752 759.013 804.528C760.477 803.304 762.445 802.692 764.917 802.692C766.597 802.692 768.481 803.04 770.569 803.736L769.633 806.22Z" fill="black"/>
<circle cx="547" cy="587" r="415" stroke="#9E252A" stroke-width="10"/>
</svg>
